<svg width="46" height="46" viewBox="0 0 46 46" fill="none" xmlns="http://www.w3.org/2000/svg">
<g clip-path="url(#clip0_54_68)">
<rect y="20.9338" width="32.6578" height="32.6578" rx="16" transform="rotate(-39.8667 0 20.9338)" fill="#F1DFC2"/>
<rect x="16.4704" y="27.1232" width="15.3083" height="2.04111" rx="1" transform="rotate(-39.8667 16.4704 27.1232)" fill="#231F20"/>
<path d="M19.2082 17.9495C19.2588 17.3858 19.7568 16.9699 20.3205 17.0206L26.9246 17.6138C27.7668 17.6895 28.3882 18.4335 28.3125 19.2758L28.2662 19.7921L20.1371 19.0618C19.5734 19.0112 19.1575 18.5132 19.2082 17.9495Z" fill="#231F20"/>
<path d="M27.2963 27.6389C26.7347 27.5884 26.3202 27.0922 26.3707 26.5305L27.1013 18.3979L27.6104 18.4436C28.4526 18.5193 29.074 19.2633 28.9983 20.1055L28.4047 26.7132C28.3543 27.2749 27.858 27.6893 27.2963 27.6389Z" fill="#231F20"/>
</g>
<defs>
<clipPath id="clip0_54_68">
<rect y="20.9338" width="32.6578" height="32.6578" rx="16" transform="rotate(-39.8667 0 20.9338)" fill="white"/>
</clipPath>
</defs>
</svg>
