<svg width="50" height="50" viewBox="0 0 50 50" fill="none" xmlns="http://www.w3.org/2000/svg">
<path d="M39.5508 30.4199C39.7461 30.4199 39.917 30.3467 40.0635 30.2002C40.21 30.0537 40.2832 29.8828 40.2832 29.6875V28.9062C40.2832 28.0924 40.1286 27.3031 39.8193 26.5381C39.5101 25.7731 39.0625 25.0977 38.4766 24.5117C38.2161 24.2513 37.9395 24.0234 37.6465 23.8281C37.3535 23.6328 37.0443 23.4538 36.7188 23.291C37.2721 22.9004 37.7116 22.3877 38.0371 21.7529C38.3626 21.1182 38.5254 20.4427 38.5254 19.7266C38.5254 18.4896 38.0941 17.4398 37.2314 16.5771C36.3688 15.7145 35.319 15.2832 34.082 15.2832C33.3008 15.2832 32.5846 15.4704 31.9336 15.8447C31.2826 16.2191 30.7617 16.6992 30.3711 17.2852C30.3711 17.2852 30.3711 17.2689 30.3711 17.2363C30.3711 17.2038 30.3711 17.1875 30.3711 17.1875C30.3711 15.6901 29.8421 14.4206 28.7842 13.3789C27.7262 12.3372 26.4648 11.8164 25 11.8164C23.5352 11.8164 22.2738 12.3372 21.2158 13.3789C20.1579 14.4206 19.6289 15.6901 19.6289 17.1875C19.6289 17.1875 19.6289 17.2038 19.6289 17.2363C19.6289 17.2689 19.6289 17.2852 19.6289 17.2852C19.2383 16.6992 18.7174 16.2191 18.0664 15.8447C17.4154 15.4704 16.6992 15.2832 15.918 15.2832C14.681 15.2832 13.6312 15.7145 12.7686 16.5771C11.9059 17.4398 11.4746 18.4896 11.4746 19.7266C11.4746 20.4427 11.6374 21.1182 11.9629 21.7529C12.2884 22.3877 12.7279 22.9004 13.2812 23.291C13.1836 23.3561 13.0778 23.4131 12.9639 23.4619C12.8499 23.5107 12.7441 23.5677 12.6465 23.6328C12.4837 23.7305 12.3779 23.877 12.3291 24.0723C12.2803 24.2676 12.321 24.4466 12.4512 24.6094C12.5488 24.8047 12.6953 24.9268 12.8906 24.9756C13.0859 25.0244 13.265 24.9837 13.4277 24.8535C13.8184 24.6257 14.2171 24.4548 14.624 24.3408C15.0309 24.2269 15.4622 24.1699 15.918 24.1699C16.276 24.1699 16.6341 24.2106 16.9922 24.292C17.3503 24.3734 17.7083 24.4954 18.0664 24.6582C17.5456 25.3743 17.1468 26.1475 16.8701 26.9775C16.5934 27.8076 16.4551 28.6947 16.4551 29.6387V33.6426H11.1816V28.9062C11.1816 28.5482 11.2223 28.1982 11.3037 27.8564C11.3851 27.5146 11.5072 27.181 11.6699 26.8555C11.735 26.6602 11.735 26.473 11.6699 26.2939C11.6048 26.1149 11.4909 25.9766 11.3281 25.8789C11.1328 25.7812 10.9375 25.765 10.7422 25.8301C10.5469 25.8952 10.4167 26.0254 10.3516 26.2207C10.1237 26.6439 9.96094 27.0833 9.86328 27.5391C9.76562 27.9948 9.7168 28.4505 9.7168 28.9062V34.375C9.7168 34.5703 9.79004 34.7412 9.93652 34.8877C10.083 35.0342 10.2539 35.1074 10.4492 35.1074H16.4551V37.4512C16.4551 37.6465 16.5283 37.8174 16.6748 37.9639C16.8213 38.1104 16.9922 38.1836 17.1875 38.1836H18.75C18.9453 38.1836 19.1162 38.1104 19.2627 37.9639C19.4092 37.8174 19.4824 37.6465 19.4824 37.4512C19.4824 37.2559 19.4092 37.085 19.2627 36.9385C19.1162 36.792 18.9453 36.7188 18.75 36.7188H17.9199V29.6387C17.9199 27.6855 18.6117 26.0173 19.9951 24.6338C21.3786 23.2503 23.0469 22.5586 25 22.5586C26.9531 22.5586 28.6214 23.2503 30.0049 24.6338C31.3883 26.0173 32.0801 27.6855 32.0801 29.6387V36.7188H21.875C21.6797 36.7188 21.5088 36.792 21.3623 36.9385C21.2158 37.085 21.1426 37.2559 21.1426 37.4512C21.1426 37.6465 21.2158 37.8174 21.3623 37.9639C21.5088 38.1104 21.6797 38.1836 21.875 38.1836H32.8125C33.0078 38.1836 33.1787 38.1104 33.3252 37.9639C33.4717 37.8174 33.5449 37.6465 33.5449 37.4512V35.1074H39.5508C39.7461 35.1074 39.917 35.0342 40.0635 34.8877C40.21 34.7412 40.2832 34.5703 40.2832 34.375V32.8125C40.2832 32.6172 40.21 32.4463 40.0635 32.2998C39.917 32.1533 39.7461 32.0801 39.5508 32.0801C39.3555 32.0801 39.1846 32.1533 39.0381 32.2998C38.8916 32.4463 38.8184 32.6172 38.8184 32.8125V33.6426H33.5449V29.6387C33.5449 28.6947 33.4066 27.8076 33.1299 26.9775C32.8532 26.1475 32.4544 25.3743 31.9336 24.6582C32.2917 24.4954 32.6497 24.3734 33.0078 24.292C33.3659 24.2106 33.724 24.1699 34.082 24.1699C34.7005 24.1699 35.3027 24.292 35.8887 24.5361C36.4746 24.7803 36.9954 25.1139 37.4512 25.5371C37.8743 25.9928 38.208 26.5137 38.4521 27.0996C38.6963 27.6855 38.8184 28.2878 38.8184 28.9062V29.6875C38.8184 29.8828 38.8916 30.0537 39.0381 30.2002C39.1846 30.3467 39.3555 30.4199 39.5508 30.4199ZM15.918 22.7051C15.1042 22.7051 14.4043 22.4121 13.8184 21.8262C13.2324 21.2402 12.9395 20.5404 12.9395 19.7266C12.9395 18.9128 13.2324 18.2129 13.8184 17.627C14.4043 17.041 15.1042 16.748 15.918 16.748C16.7318 16.748 17.4316 17.041 18.0176 17.627C18.6035 18.2129 18.8965 18.9128 18.8965 19.7266C18.8965 20.5404 18.6035 21.2402 18.0176 21.8262C17.4316 22.4121 16.7318 22.7051 15.918 22.7051ZM18.9941 23.5352C18.929 23.5026 18.8639 23.4619 18.7988 23.4131C18.7337 23.3643 18.6523 23.3236 18.5547 23.291C19.0755 22.9004 19.4987 22.4121 19.8242 21.8262C20.1497 21.2402 20.3288 20.5892 20.3613 19.873C20.5566 20.2311 20.7926 20.5566 21.0693 20.8496C21.346 21.1426 21.6634 21.403 22.0215 21.6309C21.4355 21.8262 20.8903 22.0866 20.3857 22.4121C19.8812 22.7376 19.4173 23.112 18.9941 23.5352ZM25 21.0938C23.9258 21.0938 23.0062 20.7113 22.2412 19.9463C21.4762 19.1813 21.0938 18.2617 21.0938 17.1875C21.0938 16.1133 21.4762 15.1937 22.2412 14.4287C23.0062 13.6637 23.9258 13.2812 25 13.2812C26.0742 13.2812 26.9938 13.6637 27.7588 14.4287C28.5238 15.1937 28.9062 16.1133 28.9062 17.1875C28.9062 18.2617 28.5238 19.1813 27.7588 19.9463C26.9938 20.7113 26.0742 21.0938 25 21.0938ZM31.0059 23.5352C30.5827 23.112 30.1188 22.7376 29.6143 22.4121C29.1097 22.0866 28.5645 21.8262 27.9785 21.6309C28.3366 21.403 28.654 21.1426 28.9307 20.8496C29.2074 20.5566 29.4434 20.2311 29.6387 19.873C29.6712 20.5892 29.8503 21.2402 30.1758 21.8262C30.5013 22.4121 30.9245 22.9004 31.4453 23.291C31.3477 23.3236 31.2663 23.3643 31.2012 23.4131C31.1361 23.4619 31.071 23.5026 31.0059 23.5352ZM34.082 22.7051C33.2682 22.7051 32.5684 22.4121 31.9824 21.8262C31.3965 21.2402 31.1035 20.5404 31.1035 19.7266C31.1035 18.9128 31.3965 18.2129 31.9824 17.627C32.5684 17.041 33.2682 16.748 34.082 16.748C34.8958 16.748 35.5957 17.041 36.1816 17.627C36.7676 18.2129 37.0605 18.9128 37.0605 19.7266C37.0605 20.5404 36.7676 21.2402 36.1816 21.8262C35.5957 22.4121 34.8958 22.7051 34.082 22.7051ZM7.66602 3.95508H3.66211C2.65299 3.95508 1.79036 4.31315 1.07422 5.0293C0.358073 5.74544 0 6.60807 0 7.61719V11.6211C0 12.2396 0.211589 12.7604 0.634766 13.1836C1.05794 13.6068 1.57878 13.8184 2.19727 13.8184C2.81576 13.8184 3.33659 13.6068 3.75977 13.1836C4.18294 12.7604 4.39453 12.2396 4.39453 11.6211V8.34961H7.66602C8.2845 8.34961 8.80534 8.13802 9.22852 7.71484C9.65169 7.29167 9.86328 6.77083 9.86328 6.15234C9.86328 5.53386 9.65169 5.01302 9.22852 4.58984C8.80534 4.16667 8.2845 3.95508 7.66602 3.95508ZM7.66602 6.88477H3.66211C3.4668 6.88477 3.2959 6.95801 3.14941 7.10449C3.00293 7.25098 2.92969 7.42188 2.92969 7.61719V11.6211C2.92969 11.8164 2.85645 11.9873 2.70996 12.1338C2.56348 12.2803 2.39258 12.3535 2.19727 12.3535C2.00195 12.3535 1.83105 12.2803 1.68457 12.1338C1.53809 11.9873 1.46484 11.8164 1.46484 11.6211V7.61719C1.46484 6.9987 1.67643 6.47786 2.09961 6.05469C2.52279 5.63151 3.04362 5.41992 3.66211 5.41992H7.66602C7.86133 5.41992 8.03223 5.49316 8.17871 5.63965C8.3252 5.78613 8.39844 5.95703 8.39844 6.15234C8.39844 6.34766 8.3252 6.51855 8.17871 6.66504C8.03223 6.81152 7.86133 6.88477 7.66602 6.88477ZM46.3379 3.95508H42.334C41.7155 3.95508 41.1947 4.16667 40.7715 4.58984C40.3483 5.01302 40.1367 5.53386 40.1367 6.15234C40.1367 6.77083 40.3483 7.29167 40.7715 7.71484C41.1947 8.13802 41.7155 8.34961 42.334 8.34961H45.6055V11.6211C45.6055 12.2396 45.8171 12.7604 46.2402 13.1836C46.6634 13.6068 47.1842 13.8184 47.8027 13.8184C48.4212 13.8184 48.9421 13.6068 49.3652 13.1836C49.7884 12.7604 50 12.2396 50 11.6211V7.61719C50 6.60807 49.6419 5.74544 48.9258 5.0293C48.2096 4.31315 47.347 3.95508 46.3379 3.95508ZM48.5352 11.6211C48.5352 11.8164 48.4619 11.9873 48.3154 12.1338C48.1689 12.2803 47.998 12.3535 47.8027 12.3535C47.6074 12.3535 47.4365 12.2803 47.29 12.1338C47.1436 11.9873 47.0703 11.8164 47.0703 11.6211V7.61719C47.0703 7.42188 46.9971 7.25098 46.8506 7.10449C46.7041 6.95801 46.5332 6.88477 46.3379 6.88477H42.334C42.1387 6.88477 41.9678 6.81152 41.8213 6.66504C41.6748 6.51855 41.6016 6.34766 41.6016 6.15234C41.6016 5.95703 41.6748 5.78613 41.8213 5.63965C41.9678 5.49316 42.1387 5.41992 42.334 5.41992H46.3379C46.9564 5.41992 47.4772 5.63151 47.9004 6.05469C48.3236 6.47786 48.5352 6.9987 48.5352 7.61719V11.6211ZM47.8027 36.1816C47.1842 36.1816 46.6634 36.3932 46.2402 36.8164C45.8171 37.2396 45.6055 37.7604 45.6055 38.3789V41.6504H42.334C41.7155 41.6504 41.1947 41.862 40.7715 42.2852C40.3483 42.7083 40.1367 43.2292 40.1367 43.8477C40.1367 44.4661 40.3483 44.987 40.7715 45.4102C41.1947 45.8333 41.7155 46.0449 42.334 46.0449H46.3379C47.347 46.0449 48.2096 45.6868 48.9258 44.9707C49.6419 44.2546 50 43.3919 50 42.3828V38.3789C50 37.7604 49.7884 37.2396 49.3652 36.8164C48.9421 36.3932 48.4212 36.1816 47.8027 36.1816ZM48.5352 42.3828C48.5352 43.0013 48.3236 43.5221 47.9004 43.9453C47.4772 44.3685 46.9564 44.5801 46.3379 44.5801H42.334C42.1387 44.5801 41.9678 44.5068 41.8213 44.3604C41.6748 44.2139 41.6016 44.043 41.6016 43.8477C41.6016 43.6523 41.6748 43.4814 41.8213 43.335C41.9678 43.1885 42.1387 43.1152 42.334 43.1152H46.3379C46.5332 43.1152 46.7041 43.042 46.8506 42.8955C46.9971 42.749 47.0703 42.5781 47.0703 42.3828V38.3789C47.0703 38.1836 47.1436 38.0127 47.29 37.8662C47.4365 37.7197 47.6074 37.6465 47.8027 37.6465C47.998 37.6465 48.1689 37.7197 48.3154 37.8662C48.4619 38.0127 48.5352 38.1836 48.5352 38.3789V42.3828ZM7.66602 41.6504H4.39453V38.3789C4.39453 37.7604 4.18294 37.2396 3.75977 36.8164C3.33659 36.3932 2.81576 36.1816 2.19727 36.1816C1.57878 36.1816 1.05794 36.3932 0.634766 36.8164C0.211589 37.2396 0 37.7604 0 38.3789V42.3828C0 43.3919 0.358073 44.2546 1.07422 44.9707C1.79036 45.6868 2.65299 46.0449 3.66211 46.0449H7.66602C8.2845 46.0449 8.80534 45.8333 9.22852 45.4102C9.65169 44.987 9.86328 44.4661 9.86328 43.8477C9.86328 43.2292 9.65169 42.7083 9.22852 42.2852C8.80534 41.862 8.2845 41.6504 7.66602 41.6504ZM7.66602 44.5801H3.66211C3.04362 44.5801 2.52279 44.3685 2.09961 43.9453C1.67643 43.5221 1.46484 43.0013 1.46484 42.3828V38.3789C1.46484 38.1836 1.53809 38.0127 1.68457 37.8662C1.83105 37.7197 2.00195 37.6465 2.19727 37.6465C2.39258 37.6465 2.56348 37.7197 2.70996 37.8662C2.85645 38.0127 2.92969 38.1836 2.92969 38.3789V42.3828C2.92969 42.5781 3.00293 42.749 3.14941 42.8955C3.2959 43.042 3.4668 43.1152 3.66211 43.1152H7.66602C7.86133 43.1152 8.03223 43.1885 8.17871 43.335C8.3252 43.4814 8.39844 43.6523 8.39844 43.8477C8.39844 44.043 8.3252 44.2139 8.17871 44.3604C8.03223 44.5068 7.86133 44.5801 7.66602 44.5801ZM25 0C24.3815 0 23.8607 0.21159 23.4375 0.634766C23.0143 1.05794 22.8027 1.57878 22.8027 2.19727V6.10352C22.8027 6.722 23.0143 7.24284 23.4375 7.66602C23.8607 8.08919 24.3815 8.30078 25 8.30078C25.6185 8.30078 26.1393 8.08919 26.5625 7.66602C26.9857 7.24284 27.1973 6.722 27.1973 6.10352V2.19727C27.1973 1.57878 26.9857 1.05794 26.5625 0.634766C26.1393 0.21159 25.6185 0 25 0ZM25.7324 6.10352C25.7324 6.29883 25.6592 6.46973 25.5127 6.61621C25.3662 6.7627 25.1953 6.83594 25 6.83594C24.8047 6.83594 24.6338 6.7627 24.4873 6.61621C24.3408 6.46973 24.2676 6.29883 24.2676 6.10352V2.19727C24.2676 2.00195 24.3408 1.83105 24.4873 1.68457C24.6338 1.53809 24.8047 1.46484 25 1.46484C25.1953 1.46484 25.3662 1.53809 25.5127 1.68457C25.6592 1.83105 25.7324 2.00195 25.7324 2.19727V6.10352ZM25 41.6992C24.3815 41.6992 23.8607 41.9108 23.4375 42.334C23.0143 42.7572 22.8027 43.278 22.8027 43.8965V47.8027C22.8027 48.4212 23.0143 48.9421 23.4375 49.3652C23.8607 49.7884 24.3815 50 25 50C25.6185 50 26.1393 49.7884 26.5625 49.3652C26.9857 48.9421 27.1973 48.4212 27.1973 47.8027V43.8965C27.1973 43.278 26.9857 42.7572 26.5625 42.334C26.1393 41.9108 25.6185 41.6992 25 41.6992ZM25.7324 47.8027C25.7324 47.998 25.6592 48.1689 25.5127 48.3154C25.3662 48.4619 25.1953 48.5352 25 48.5352C24.8047 48.5352 24.6338 48.4619 24.4873 48.3154C24.3408 48.1689 24.2676 47.998 24.2676 47.8027V43.8965C24.2676 43.7012 24.3408 43.5303 24.4873 43.3838C24.6338 43.2373 24.8047 43.1641 25 43.1641C25.1953 43.1641 25.3662 43.2373 25.5127 43.3838C25.6592 43.5303 25.7324 43.7012 25.7324 43.8965V47.8027ZM47.8027 22.8027H43.8965C43.278 22.8027 42.7572 23.0143 42.334 23.4375C41.9108 23.8607 41.6992 24.3815 41.6992 25C41.6992 25.6185 41.9108 26.1393 42.334 26.5625C42.7572 26.9857 43.278 27.1973 43.8965 27.1973H47.8027C48.4212 27.1973 48.9421 26.9857 49.3652 26.5625C49.7884 26.1393 50 25.6185 50 25C50 24.3815 49.7884 23.8607 49.3652 23.4375C48.9421 23.0143 48.4212 22.8027 47.8027 22.8027ZM47.8027 25.7324H43.8965C43.7012 25.7324 43.5303 25.6592 43.3838 25.5127C43.2373 25.3662 43.1641 25.1953 43.1641 25C43.1641 24.8047 43.2373 24.6338 43.3838 24.4873C43.5303 24.3408 43.7012 24.2676 43.8965 24.2676H47.8027C47.998 24.2676 48.1689 24.3408 48.3154 24.4873C48.4619 24.6338 48.5352 24.8047 48.5352 25C48.5352 25.1953 48.4619 25.3662 48.3154 25.5127C48.1689 25.6592 47.998 25.7324 47.8027 25.7324ZM6.10352 22.8027H2.19727C1.57878 22.8027 1.05794 23.0143 0.634766 23.4375C0.211589 23.8607 0 24.3815 0 25C0 25.6185 0.211589 26.1393 0.634766 26.5625C1.05794 26.9857 1.57878 27.1973 2.19727 27.1973H6.10352C6.72201 27.1973 7.24284 26.9857 7.66602 26.5625C8.08919 26.1393 8.30078 25.6185 8.30078 25C8.30078 24.3815 8.08919 23.8607 7.66602 23.4375C7.24284 23.0143 6.72201 22.8027 6.10352 22.8027ZM6.10352 25.7324H2.19727C2.00195 25.7324 1.83105 25.6592 1.68457 25.5127C1.53809 25.3662 1.46484 25.1953 1.46484 25C1.46484 24.8047 1.53809 24.6338 1.68457 24.4873C1.83105 24.3408 2.00195 24.2676 2.19727 24.2676H6.10352C6.29883 24.2676 6.46973 24.3408 6.61621 24.4873C6.7627 24.6338 6.83594 24.8047 6.83594 25C6.83594 25.1953 6.7627 25.3662 6.61621 25.5127C6.46973 25.6592 6.29883 25.7324 6.10352 25.7324ZM29.1016 27.2461C28.9388 27.1159 28.7598 27.0752 28.5645 27.124C28.3691 27.1729 28.2064 27.2786 28.0762 27.4414L24.9023 31.9824L22.0703 29.1504C21.9401 29.0202 21.7692 28.9551 21.5576 28.9551C21.346 28.9551 21.1751 29.0202 21.0449 29.1504C20.8822 29.3132 20.8089 29.4922 20.8252 29.6875C20.8415 29.8828 20.9147 30.0456 21.0449 30.1758L24.5117 33.6426C24.5768 33.7077 24.6582 33.7565 24.7559 33.7891C24.8535 33.8216 24.9512 33.8379 25.0488 33.8379C25.0488 33.8379 25.057 33.8379 25.0732 33.8379C25.0895 33.8379 25.0977 33.8379 25.0977 33.8379C25.1953 33.8379 25.293 33.8135 25.3906 33.7646C25.4883 33.7158 25.5697 33.6426 25.6348 33.5449L29.2969 28.2715C29.3945 28.1087 29.4271 27.9297 29.3945 27.7344C29.362 27.5391 29.2643 27.3763 29.1016 27.2461Z" fill="#CDB06C"/>
</svg>
