<svg width="28" height="28" viewBox="0 0 28 28" fill="none" xmlns="http://www.w3.org/2000/svg">
<g clip-path="url(#clip0_7_7180)">
<path d="M25.4017 0.0448C25.3793 0.0448 25.3569 0.0224 25.3345 0C17.7633 0 10.1921 0 2.62086 0C2.19526 0.1792 1.72486 0.2912 1.34406 0.5376C0.627261 0.9856 0.201661 1.6576 0.0672609 2.5088C0.0672609 2.5536 0.0448609 2.5984 0.0224609 2.6208C0.0224609 10.192 0.0224609 17.7632 0.0224609 25.3344C0.134461 25.648 0.201661 25.984 0.358461 26.2752C0.896061 27.328 1.76966 27.888 2.95686 27.9328C3.94246 27.9776 4.92806 27.9328 5.91366 27.9328C12.2305 27.9328 18.5473 27.9328 24.8417 27.9328C26.3649 27.9328 27.5521 27.0368 27.8881 25.6032C27.9553 25.3344 27.9777 25.0208 27.9777 24.7296C27.9777 17.5392 27.9777 10.3488 28.0001 3.1808C27.9553 1.3888 26.6785 0.2016 25.4017 0.0448ZM22.8705 17.1136C22.8705 17.8528 22.8033 18.6144 22.6241 19.3312C22.1313 21.3248 20.5409 22.6688 18.5025 22.8704C17.4497 22.9824 16.3969 22.9824 15.3441 23.0048C14.8513 23.0272 14.3585 23.0048 13.8657 23.0048V23.0272C12.4993 22.9824 11.1105 22.9824 9.74406 22.9152C8.10886 22.8256 6.72006 22.176 5.75686 20.7872C5.24166 20.0256 4.97286 19.152 4.92806 18.256C4.77126 15.4112 4.74886 12.544 4.92806 9.6992C5.08486 7.1008 6.89926 5.264 9.49766 5.04C10.3937 4.9728 11.2673 4.928 12.1633 4.928C14.0225 4.928 15.8817 4.9504 17.7185 4.9952C18.8833 5.0176 19.9809 5.3088 20.9441 6.0256C22.1313 6.9216 22.7585 8.176 22.8033 9.6096C22.8929 12.096 22.8929 14.6048 22.8705 17.1136ZM21.2353 13.9776C21.2353 12.7232 21.2577 11.4464 21.2353 10.192C21.2129 9.3184 21.0337 8.4896 20.4513 7.7952C19.7569 6.944 18.7937 6.6528 17.7409 6.608C15.9041 6.5632 14.0673 6.5408 12.2305 6.5408C11.3121 6.5408 10.3937 6.5632 9.47526 6.6528C8.04166 6.7872 7.03366 7.6608 6.69766 9.0048C6.58566 9.4528 6.51846 9.9456 6.51846 10.416C6.49606 12.3424 6.47366 14.2912 6.47366 16.2176C6.47366 16.9792 6.51846 17.7632 6.63046 18.5248C6.85446 19.9136 7.66086 20.8096 9.02726 21.1456C9.49766 21.2576 10.0129 21.3024 10.5057 21.3248C12.1185 21.3472 13.7313 21.3696 15.3665 21.3696C16.3745 21.3696 17.4049 21.3472 18.4129 21.2128C19.7793 21.0336 20.6977 20.2496 21.0561 18.9056C21.1681 18.5024 21.2353 18.0544 21.2353 17.6512C21.2577 16.4192 21.2353 15.2096 21.2353 13.9776ZM13.8433 18.6144C11.2673 18.592 9.20646 16.4864 9.22886 13.888C9.25126 11.3568 11.3569 9.296 13.8881 9.3184C16.4865 9.3408 18.5249 11.424 18.5025 14.0224C18.4801 16.576 16.3969 18.6144 13.8433 18.6144ZM18.7041 10.2144C18.0993 10.2144 17.6065 9.744 17.6065 9.1392C17.6065 8.5344 18.0769 8.064 18.6817 8.064C19.2865 8.064 19.7793 8.5568 19.7793 9.1616C19.7793 9.7216 19.3089 10.2144 18.7041 10.2144ZM13.8433 10.9312C12.1633 10.9536 10.8417 12.2976 10.8417 13.9776C10.8417 15.6352 12.2081 16.9792 13.8657 16.9568C15.5233 16.9568 16.8897 15.5904 16.8673 13.9328C16.8673 12.2752 15.5009 10.9088 13.8433 10.9312Z" fill="#003057"/>
</g>
<defs>
<clipPath id="clip0_7_7180">
<rect width="28" height="28" fill="white"/>
</clipPath>
</defs>
</svg>
