<svg width="28" height="28" viewBox="0 0 28 28" fill="none" xmlns="http://www.w3.org/2000/svg">
<g clip-path="url(#clip0_7_7175)">
<path d="M2.91206 27.9327C3.89766 27.9775 4.88326 27.9327 5.86886 27.9327C12.1857 27.9327 18.5025 27.9327 24.7969 27.9327C26.3201 27.9327 27.5073 27.0367 27.8433 25.6031C27.9105 25.3343 27.9329 25.0207 27.9329 24.7295C27.9329 17.5391 27.9329 10.3487 27.9553 3.18074C27.9553 1.36634 26.6785 0.201539 25.4017 0.0223391C25.3793 0.0223391 25.3569 -6.09364e-05 25.3345 -0.0224609C17.7633 -6.09364e-05 10.1921 -6.09364e-05 2.62086 -6.09364e-05C2.19526 0.179139 1.72486 0.291139 1.34406 0.537539C0.627261 0.985539 0.201661 1.65754 0.0672609 2.50874C0.0672609 2.55354 0.0448609 2.59834 0.0224609 2.62074C0.0224609 10.1919 0.0224609 17.7631 0.0224609 25.3343C0.134461 25.6479 0.201661 25.9839 0.358461 26.2751C0.873661 27.3279 1.74726 27.8879 2.91206 27.9327ZM12.8353 3.27034C18.8161 2.66554 24.0129 7.01114 24.6177 12.7903C25.2449 18.8159 20.9441 23.7215 15.6353 24.5503C15.6353 22.0639 15.6353 19.5775 15.6353 17.0687C16.4641 17.0687 17.2705 17.0687 18.1217 17.0687C18.2785 16.0383 18.4353 15.0079 18.5921 13.9551C17.5841 13.9551 16.6209 13.9551 15.6129 13.9551C15.6129 13.7311 15.6129 13.5295 15.6129 13.3279C15.6129 12.8575 15.6129 12.3871 15.6129 11.9167C15.6129 10.8863 16.2177 10.2815 17.2257 10.2591C17.6961 10.2367 18.1889 10.2591 18.6817 10.2591C18.6817 9.38554 18.6817 8.51194 18.6817 7.59354C18.0769 7.52634 17.4721 7.43674 16.8673 7.43674C16.2625 7.43674 15.6353 7.43674 15.0529 7.57114C13.5297 7.90714 12.4993 9.04954 12.3201 10.6175C12.2081 11.5807 12.2529 12.5663 12.2305 13.5519C12.2305 13.6863 12.2305 13.7983 12.2305 13.9551C11.3121 13.9551 10.4385 13.9551 9.52006 13.9551C9.52006 15.0079 9.52006 16.0159 9.52006 17.0687C10.4161 17.0687 11.2897 17.0687 12.2081 17.0687C12.2081 19.5775 12.2081 22.0639 12.2081 24.5279C8.33286 24.0799 3.65126 20.5855 3.20326 14.8287C2.75526 8.75834 7.25766 3.83034 12.8353 3.27034Z" fill="#003057"/>
</g>
<defs>
<clipPath id="clip0_7_7175">
<rect width="28" height="28" fill="white"/>
</clipPath>
</defs>
</svg>
