<svg width="50" height="37" viewBox="0 0 50 37" fill="none" xmlns="http://www.w3.org/2000/svg">
<path d="M44.1406 16.5527C43.2617 16.097 42.2201 15.8366 41.0156 15.7715C39.8112 15.7064 39.1764 15.6738 39.1113 15.6738C38.8835 15.6738 38.7044 15.7471 38.5742 15.8936C38.444 16.04 38.3789 16.2109 38.3789 16.4062C38.3789 16.6016 38.444 16.7725 38.5742 16.9189C38.7044 17.0654 38.8835 17.1387 39.1113 17.1387C39.502 17.1387 40.1774 17.1794 41.1377 17.2607C42.098 17.3421 42.8711 17.5293 43.457 17.8223C43.5221 17.8548 43.5791 17.8792 43.6279 17.8955C43.6768 17.9118 43.7337 17.9199 43.7988 17.9199C43.929 17.9199 44.0511 17.8874 44.165 17.8223C44.279 17.7572 44.3685 17.6595 44.4336 17.5293C44.5312 17.334 44.5475 17.1387 44.4824 16.9434C44.4173 16.748 44.3034 16.6178 44.1406 16.5527ZM47.7539 26.9531L44.7266 26.0742C44.6615 26.0742 44.6126 26.0417 44.5801 25.9766C44.5475 25.9115 44.5312 25.8464 44.5312 25.7812V24.8047C44.6615 24.707 44.7835 24.6094 44.8975 24.5117C45.0114 24.4141 45.1172 24.3164 45.2148 24.2188C45.7357 23.6979 46.1426 23.1038 46.4355 22.4365C46.7285 21.7692 46.875 21.0612 46.875 20.3125V18.9453L47.168 18.3594C47.3307 18.0339 47.4528 17.6921 47.5342 17.334C47.6156 16.9759 47.6562 16.6178 47.6562 16.2598V12.5C47.6562 12.2721 47.583 12.0931 47.4365 11.9629C47.29 11.8327 47.1191 11.7676 46.9238 11.7676H39.8926C38.5905 11.7676 37.4837 12.2233 36.5723 13.1348C35.6608 14.0462 35.2051 15.1367 35.2051 16.4062V16.4551C35.2051 16.748 35.2458 17.041 35.3271 17.334C35.4085 17.627 35.5143 17.9036 35.6445 18.1641L35.9863 18.9453V20.1172C35.9863 21.0612 36.2061 21.9401 36.6455 22.7539C37.085 23.5677 37.6628 24.235 38.3789 24.7559V25.7812C38.3789 25.8789 38.3464 25.9521 38.2812 26.001C38.2161 26.0498 38.0371 26.123 37.7441 26.2207L36.2793 26.6113L32.0312 25.0488C32.0312 24.9512 32.015 24.8535 31.9824 24.7559C31.9499 24.6582 31.8848 24.5768 31.7871 24.5117L30.4688 23.0957V20.6543C30.5339 20.6217 30.599 20.5729 30.6641 20.5078C30.7292 20.4427 30.7943 20.3776 30.8594 20.3125C31.7383 19.4987 32.4137 18.5465 32.8857 17.4561C33.3577 16.3656 33.5938 15.2344 33.5938 14.0625V12.1094C33.8542 11.556 34.0495 10.9782 34.1797 10.376C34.3099 9.77376 34.375 9.17969 34.375 8.59375V0.732422C34.375 0.537109 34.3018 0.366211 34.1553 0.219727C34.0088 0.0732422 33.8379 0 33.6426 0H22.6562C20.7357 0 19.0918 0.683594 17.7246 2.05078C16.3574 3.41797 15.6738 5.06185 15.6738 6.98242V8.59375C15.6738 9.17969 15.7389 9.77376 15.8691 10.376C15.9993 10.9782 16.1947 11.556 16.4551 12.1094V13.7695C16.4551 15.1367 16.7399 16.4144 17.3096 17.6025C17.8792 18.7907 18.6361 19.7917 19.5801 20.6055V23.0957L18.2129 24.5117C18.1478 24.5768 18.099 24.6582 18.0664 24.7559C18.0339 24.8535 18.0176 24.9512 18.0176 25.0488L13.5254 26.709C13.3626 26.7741 13.1999 26.8473 13.0371 26.9287C12.8743 27.0101 12.7279 27.0996 12.5977 27.1973L11.9141 26.8066C12.9557 26.3509 13.68 25.8708 14.0869 25.3662C14.4938 24.8617 14.6973 24.5931 14.6973 24.5605C14.7624 24.4629 14.7949 24.3571 14.7949 24.2432C14.7949 24.1292 14.7624 24.0234 14.6973 23.9258C14.4368 23.3724 14.2741 22.6644 14.209 21.8018C14.1439 20.9391 14.0951 20.1172 14.0625 19.3359C14.0625 19.1081 14.0544 18.8721 14.0381 18.6279C14.0218 18.3838 14.0137 18.1478 14.0137 17.9199C13.8835 16.1621 13.2243 14.6973 12.0361 13.5254C10.848 12.3535 9.42383 11.7676 7.76367 11.7676C6.13607 11.7676 4.72819 12.3535 3.54004 13.5254C2.35189 14.6973 1.69271 16.1621 1.5625 17.9199C1.5625 18.1478 1.55436 18.3838 1.53809 18.6279C1.52181 18.8721 1.51367 19.1081 1.51367 19.3359C1.48112 20.1172 1.43229 20.9391 1.36719 21.8018C1.30208 22.6644 1.13932 23.3724 0.878906 23.9258C0.813802 24.0234 0.78125 24.1292 0.78125 24.2432C0.78125 24.3571 0.813802 24.4629 0.878906 24.5605C0.878906 24.5931 1.08236 24.8617 1.48926 25.3662C1.89616 25.8708 2.62044 26.3509 3.66211 26.8066L1.70898 27.832C1.18815 28.0924 0.773112 28.4668 0.463867 28.9551C0.154622 29.4434 0 29.9805 0 30.5664V35.9863C0 36.1816 0.0732422 36.3525 0.219727 36.499C0.366211 36.6455 0.537109 36.7188 0.732422 36.7188C0.927734 36.7188 1.09863 36.6455 1.24512 36.499C1.3916 36.3525 1.46484 36.1816 1.46484 35.9863V30.5664C1.46484 30.2734 1.54622 29.9967 1.70898 29.7363C1.87174 29.4759 2.08333 29.2643 2.34375 29.1016L4.83398 27.8809L5.66406 28.7109C5.95703 29.0039 6.29069 29.2155 6.66504 29.3457C7.03939 29.4759 7.4056 29.541 7.76367 29.541C8.1543 29.541 8.53678 29.4759 8.91113 29.3457C9.28548 29.2155 9.61914 29.0039 9.91211 28.7109L10.7422 27.8809L11.5723 28.3203C11.377 28.6133 11.2305 28.9307 11.1328 29.2725C11.0352 29.6143 10.9863 29.9642 10.9863 30.3223V35.9863C10.9863 36.1816 11.0514 36.3525 11.1816 36.499C11.3118 36.6455 11.4909 36.7188 11.7188 36.7188C11.9141 36.7188 12.085 36.6455 12.2314 36.499C12.3779 36.3525 12.4512 36.1816 12.4512 35.9863V30.3223C12.4512 29.834 12.5895 29.3783 12.8662 28.9551C13.1429 28.5319 13.5254 28.2389 14.0137 28.0762L18.75 26.3672L20.752 29.3457C20.8822 29.5085 21.0449 29.6549 21.2402 29.7852C21.4355 29.9154 21.6471 29.9805 21.875 29.9805C21.875 29.9805 21.8913 29.9805 21.9238 29.9805C21.9564 29.9805 21.9889 29.9805 22.0215 29.9805C22.2168 29.9805 22.404 29.9479 22.583 29.8828C22.762 29.8177 22.9329 29.7038 23.0957 29.541L24.2676 28.3691V35.9863C24.2676 36.1816 24.3408 36.3525 24.4873 36.499C24.6338 36.6455 24.8047 36.7188 25 36.7188C25.1953 36.7188 25.3662 36.6455 25.5127 36.499C25.6592 36.3525 25.7324 36.1816 25.7324 35.9863V28.3691L26.9531 29.541C27.0833 29.7038 27.2461 29.8177 27.4414 29.8828C27.6367 29.9479 27.832 29.9805 28.0273 29.9805C28.0599 29.9805 28.0843 29.9805 28.1006 29.9805C28.1169 29.9805 28.1413 29.9805 28.1738 29.9805C28.4017 29.9805 28.6133 29.9154 28.8086 29.7852C29.0039 29.6549 29.1667 29.5085 29.2969 29.3457L31.25 26.3672L36.0352 28.0762C36.4909 28.2389 36.8652 28.5319 37.1582 28.9551C37.4512 29.3783 37.5977 29.834 37.5977 30.3223V35.9863C37.5977 36.1816 37.6709 36.3525 37.8174 36.499C37.9639 36.6455 38.1348 36.7188 38.3301 36.7188C38.5254 36.7188 38.6963 36.6455 38.8428 36.499C38.9893 36.3525 39.0625 36.1816 39.0625 35.9863V30.3223C39.0625 29.834 38.9648 29.3538 38.7695 28.8818C38.5742 28.4098 38.3138 28.0111 37.9883 27.6855L38.1348 27.5879C38.2324 27.5879 38.3464 27.5635 38.4766 27.5146C38.6068 27.4658 38.7207 27.4089 38.8184 27.3438L40.7227 29.248V35.9863C40.7227 36.1816 40.7878 36.3525 40.918 36.499C41.0482 36.6455 41.2272 36.7188 41.4551 36.7188C41.6504 36.7188 41.8213 36.6455 41.9678 36.499C42.1143 36.3525 42.1875 36.1816 42.1875 35.9863V29.248L44.043 27.3926C44.0755 27.3926 44.1162 27.4089 44.165 27.4414C44.2139 27.474 44.2708 27.4902 44.3359 27.4902L47.3633 28.3691C47.7214 28.4668 48.0062 28.6621 48.2178 28.9551C48.4294 29.248 48.5352 29.5736 48.5352 29.9316V35.9863C48.5352 36.1816 48.6084 36.3525 48.7549 36.499C48.9014 36.6455 49.0723 36.7188 49.2676 36.7188C49.4629 36.7188 49.6338 36.6455 49.7803 36.499C49.9268 36.3525 50 36.1816 50 35.9863V29.9316C50 29.248 49.7966 28.6296 49.3896 28.0762C48.9827 27.5228 48.4375 27.1484 47.7539 26.9531ZM4.6875 25.6836C4.00391 25.4232 3.48307 25.1465 3.125 24.8535C2.76693 24.5605 2.50651 24.3327 2.34375 24.1699C2.44141 23.9095 2.52279 23.6247 2.58789 23.3154C2.65299 23.0062 2.7181 22.7051 2.7832 22.4121C2.97852 22.9004 3.23893 23.348 3.56445 23.7549C3.88997 24.1618 4.26432 24.5117 4.6875 24.8047V25.6836ZM8.88672 27.6367C8.59375 27.9297 8.22754 28.0762 7.78809 28.0762C7.34863 28.0762 6.98242 27.9297 6.68945 27.6367L6.00586 27.002C6.03841 26.9043 6.07096 26.7904 6.10352 26.6602C6.13607 26.5299 6.15234 26.3997 6.15234 26.2695V25.4883C6.41276 25.5859 6.68131 25.651 6.95801 25.6836C7.2347 25.7161 7.50326 25.7324 7.76367 25.7324C8.05664 25.7324 8.34147 25.7161 8.61816 25.6836C8.89486 25.651 9.16341 25.5859 9.42383 25.4883V26.2695C9.42383 26.3997 9.43197 26.5299 9.44824 26.6602C9.46452 26.7904 9.50521 26.9043 9.57031 27.002L8.88672 27.6367ZM7.76367 24.2676C6.68945 24.2676 5.76172 23.8851 4.98047 23.1201C4.19922 22.3551 3.80859 21.4193 3.80859 20.3125C3.80859 20.1172 3.73535 19.9463 3.58887 19.7998C3.44238 19.6533 3.27148 19.5801 3.07617 19.5801C3.07617 19.5801 3.0599 19.5801 3.02734 19.5801C2.99479 19.5801 2.97852 19.5801 2.97852 19.5801C2.97852 19.5475 2.97852 19.515 2.97852 19.4824C2.97852 19.4499 2.97852 19.4173 2.97852 19.3848C2.97852 19.1569 2.98665 18.9209 3.00293 18.6768C3.01921 18.4326 3.02734 18.2129 3.02734 18.0176C3.09245 17.3665 3.24707 16.748 3.49121 16.1621C3.73535 15.5762 4.06901 15.0553 4.49219 14.5996C4.94792 14.1439 5.45247 13.8021 6.00586 13.5742C6.55924 13.3464 7.14518 13.2324 7.76367 13.2324C8.38216 13.2324 8.97624 13.3464 9.5459 13.5742C10.1156 13.8021 10.612 14.1439 11.0352 14.5996C11.4909 15.0553 11.8408 15.5762 12.085 16.1621C12.3291 16.748 12.4837 17.3665 12.5488 18.0176C12.5488 18.2129 12.557 18.4326 12.5732 18.6768C12.5895 18.9209 12.5977 19.1569 12.5977 19.3848C12.5977 19.4173 12.5977 19.4417 12.5977 19.458C12.5977 19.4743 12.5977 19.4987 12.5977 19.5312C12.207 18.9128 11.7025 18.3838 11.084 17.9443C10.4655 17.5049 9.76562 17.1549 8.98438 16.8945C8.23568 16.6667 7.59277 16.5365 7.05566 16.5039C6.51855 16.4714 6.23372 16.4551 6.20117 16.4551C6.10352 16.4551 6.014 16.4714 5.93262 16.5039C5.85124 16.5365 5.77799 16.6016 5.71289 16.6992L4.3457 18.0664C4.21549 18.1966 4.15039 18.3594 4.15039 18.5547C4.15039 18.75 4.23177 18.929 4.39453 19.0918C4.52474 19.222 4.69564 19.2871 4.90723 19.2871C5.11881 19.2871 5.28971 19.2057 5.41992 19.043L6.54297 17.9199C6.9987 17.9525 7.82064 18.1396 9.00879 18.4814C10.1969 18.8232 11.1003 19.6452 11.7188 20.9473C11.556 21.8913 11.1084 22.6807 10.376 23.3154C9.64355 23.9502 8.77279 24.2676 7.76367 24.2676ZM10.8887 25.6836V24.8047C11.3118 24.5117 11.6862 24.1618 12.0117 23.7549C12.3372 23.348 12.5977 22.9004 12.793 22.4121C12.8255 22.7376 12.8825 23.0469 12.9639 23.3398C13.0452 23.6328 13.1348 23.9095 13.2324 24.1699C13.0697 24.3327 12.8092 24.5605 12.4512 24.8535C12.0931 25.1465 11.5723 25.4232 10.8887 25.6836ZM17.9199 13.7695V11.9629C17.9199 11.8978 17.9118 11.8408 17.8955 11.792C17.8792 11.7432 17.8548 11.7025 17.8223 11.6699C17.5944 11.1816 17.4235 10.6771 17.3096 10.1562C17.1956 9.63542 17.1387 9.11458 17.1387 8.59375V6.98242C17.1387 5.48503 17.6758 4.19108 18.75 3.10059C19.8242 2.01009 21.1263 1.46484 22.6562 1.46484H32.9102V8.59375C32.9102 9.11458 32.8451 9.63542 32.7148 10.1562C32.5846 10.6771 32.4056 11.1816 32.1777 11.6699C32.1452 11.7025 32.1289 11.7432 32.1289 11.792C32.1289 11.8408 32.1289 11.8978 32.1289 11.9629V14.0625C32.1289 15.0391 31.9336 15.9749 31.543 16.8701C31.1523 17.7653 30.599 18.5547 29.8828 19.2383C29.7852 19.3034 29.6875 19.3766 29.5898 19.458C29.4922 19.5394 29.3945 19.6289 29.2969 19.7266C28.6133 20.2474 27.8646 20.6299 27.0508 20.874C26.237 21.1182 25.4069 21.2077 24.5605 21.1426C22.7051 21.0124 21.1344 20.2393 19.8486 18.8232C18.5628 17.4072 17.9199 15.7227 17.9199 13.7695ZM22.0215 28.5156C21.9889 28.5156 21.9727 28.5156 21.9727 28.5156L19.6777 25.0977L20.4102 24.3164L23.877 26.709L22.0215 28.5156ZM25 25.6836L21.0449 22.998V21.6309C21.5658 21.8913 22.111 22.111 22.6807 22.29C23.2503 22.4691 23.8444 22.5749 24.4629 22.6074C24.5605 22.6074 24.6501 22.6074 24.7314 22.6074C24.8128 22.6074 24.9023 22.6074 25 22.6074C25.7161 22.6074 26.4079 22.526 27.0752 22.3633C27.7425 22.2005 28.3854 21.9564 29.0039 21.6309V22.998L25 25.6836ZM28.0762 28.5156C28.0762 28.5156 28.068 28.5156 28.0518 28.5156C28.0355 28.5156 28.0273 28.5156 28.0273 28.5156C28.0273 28.5156 28.0192 28.5156 28.0029 28.5156C27.9867 28.5156 27.9785 28.5156 27.9785 28.5156L26.1719 26.709L29.5898 24.3164L30.3223 25.0977L28.0762 28.5156ZM41.4551 27.8809L39.7949 26.2207C39.7949 26.1556 39.8031 26.0905 39.8193 26.0254C39.8356 25.9603 39.8438 25.8789 39.8438 25.7812V25.4883C40.0716 25.5534 40.3076 25.6104 40.5518 25.6592C40.7959 25.708 41.0319 25.7324 41.2598 25.7324C41.2923 25.7324 41.3249 25.7324 41.3574 25.7324C41.39 25.7324 41.4225 25.7324 41.4551 25.7324C41.7155 25.7324 41.9841 25.7161 42.2607 25.6836C42.5374 25.651 42.806 25.5859 43.0664 25.4883V25.7812C43.0664 25.8789 43.0664 25.9603 43.0664 26.0254C43.0664 26.0905 43.0827 26.1556 43.1152 26.2207L41.4551 27.8809ZM44.1895 23.1445C43.7988 23.5352 43.3594 23.8281 42.8711 24.0234C42.3828 24.2188 41.862 24.3001 41.3086 24.2676C40.2669 24.235 39.3636 23.8118 38.5986 22.998C37.8337 22.1842 37.4512 21.224 37.4512 20.1172V18.75C37.4512 18.6849 37.4512 18.6279 37.4512 18.5791C37.4512 18.5303 37.4349 18.4733 37.4023 18.4082L36.9629 17.5293C36.8652 17.3665 36.792 17.1875 36.7432 16.9922C36.6943 16.7969 36.6699 16.6178 36.6699 16.4551V16.4062C36.6699 15.5273 36.9873 14.7786 37.6221 14.1602C38.2568 13.5417 39.0137 13.2324 39.8926 13.2324H46.1914V16.2598C46.1914 16.5202 46.1589 16.7643 46.0938 16.9922C46.0286 17.2201 45.9473 17.4479 45.8496 17.6758L45.5078 18.4082C45.4753 18.4733 45.4508 18.5303 45.4346 18.5791C45.4183 18.6279 45.4102 18.6849 45.4102 18.75V20.3125C45.4102 20.8659 45.3044 21.3867 45.0928 21.875C44.8812 22.3633 44.5801 22.7865 44.1895 23.1445ZM46.1426 30.5664C45.9473 30.5664 45.7764 30.6315 45.6299 30.7617C45.4834 30.8919 45.4102 31.071 45.4102 31.2988V35.9863C45.4102 36.1816 45.4834 36.3525 45.6299 36.499C45.7764 36.6455 45.9473 36.7188 46.1426 36.7188C46.3379 36.7188 46.5088 36.6455 46.6553 36.499C46.8018 36.3525 46.875 36.1816 46.875 35.9863V31.2988C46.875 31.071 46.8018 30.8919 46.6553 30.7617C46.5088 30.6315 46.3379 30.5664 46.1426 30.5664ZM3.85742 31.4941C3.66211 31.4941 3.49121 31.5674 3.34473 31.7139C3.19824 31.8604 3.125 32.0312 3.125 32.2266V35.9863C3.125 36.1816 3.19824 36.3525 3.34473 36.499C3.49121 36.6455 3.66211 36.7188 3.85742 36.7188C4.05273 36.7188 4.22363 36.6455 4.37012 36.499C4.5166 36.3525 4.58984 36.1816 4.58984 35.9863V32.2266C4.58984 32.0312 4.5166 31.8604 4.37012 31.7139C4.22363 31.5674 4.05273 31.4941 3.85742 31.4941ZM31.0059 8.83789C29.6387 7.43815 27.7751 6.73014 25.415 6.71387C23.055 6.69759 21.2728 6.77083 20.0684 6.93359C19.7103 6.9987 19.4092 7.1696 19.165 7.44629C18.9209 7.72298 18.7988 8.05664 18.7988 8.44727V10.1562C18.7988 10.3516 18.8721 10.5225 19.0186 10.6689C19.165 10.8154 19.3359 10.8887 19.5312 10.8887C19.7266 10.8887 19.8975 10.8154 20.0439 10.6689C20.1904 10.5225 20.2637 10.3516 20.2637 10.1562V8.44727C20.2637 8.44727 20.2637 8.43913 20.2637 8.42285C20.2637 8.40658 20.2799 8.39844 20.3125 8.39844C20.7682 8.33333 21.4274 8.26009 22.29 8.17871C23.1527 8.09733 24.0723 8.08919 25.0488 8.1543C26.1882 8.25195 27.1729 8.43913 28.0029 8.71582C28.833 8.99251 29.4922 9.375 29.9805 9.86328C30.1107 10.026 30.2816 10.1074 30.4932 10.1074C30.7048 10.1074 30.8757 10.026 31.0059 9.86328C31.1686 9.73307 31.25 9.56217 31.25 9.35059C31.25 9.139 31.1686 8.9681 31.0059 8.83789ZM16.4062 32.1289C16.2109 32.1289 16.04 32.194 15.8936 32.3242C15.7471 32.4544 15.6738 32.6335 15.6738 32.8613V35.9863C15.6738 36.1816 15.7471 36.3525 15.8936 36.499C16.04 36.6455 16.2109 36.7188 16.4062 36.7188C16.6016 36.7188 16.7725 36.6455 16.9189 36.499C17.0654 36.3525 17.1387 36.1816 17.1387 35.9863V32.8613C17.1387 32.6335 17.0654 32.4544 16.9189 32.3242C16.7725 32.194 16.6016 32.1289 16.4062 32.1289ZM33.6426 32.1289C33.4147 32.1289 33.2357 32.194 33.1055 32.3242C32.9753 32.4544 32.9102 32.6335 32.9102 32.8613V35.9863C32.9102 36.1816 32.9753 36.3525 33.1055 36.499C33.2357 36.6455 33.4147 36.7188 33.6426 36.7188C33.8379 36.7188 34.0088 36.6455 34.1553 36.499C34.3018 36.3525 34.375 36.1816 34.375 35.9863V32.8613C34.375 32.6335 34.3018 32.4544 34.1553 32.3242C34.0088 32.194 33.8379 32.1289 33.6426 32.1289Z" fill="#CDB06C"/>
</svg>
