<svg width="50" height="50" viewBox="0 0 50 50" fill="none" xmlns="http://www.w3.org/2000/svg">
<path d="M25 14.502C25.4557 14.502 25.8382 14.6647 26.1475 14.9902C26.4567 15.3158 26.6113 15.6901 26.6113 16.1133H28.2227C28.2227 15.3646 27.9948 14.7054 27.5391 14.1357C27.0833 13.5661 26.5137 13.1999 25.8301 13.0371V11.2793H24.1699V13.0371C23.4863 13.1999 22.9167 13.5661 22.4609 14.1357C22.0052 14.7054 21.7773 15.3646 21.7773 16.1133C21.7773 17.0247 22.0947 17.7897 22.7295 18.4082C23.3643 19.0267 24.1211 19.3359 25 19.3359C25.4557 19.3359 25.8382 19.4987 26.1475 19.8242C26.4567 20.1497 26.6113 20.5241 26.6113 20.9473C26.6113 21.403 26.4567 21.7855 26.1475 22.0947C25.8382 22.404 25.4557 22.5586 25 22.5586C24.5443 22.5586 24.1618 22.404 23.8525 22.0947C23.5433 21.7855 23.3887 21.403 23.3887 20.9473H21.7773C21.7773 21.696 22.0052 22.3633 22.4609 22.9492C22.9167 23.5352 23.4863 23.9095 24.1699 24.0723V25.8301H25.8301V24.0723C26.5137 23.9095 27.0833 23.5352 27.5391 22.9492C27.9948 22.3633 28.2227 21.696 28.2227 20.9473C28.2227 20.0684 27.9053 19.3115 27.2705 18.6768C26.6357 18.042 25.8789 17.7246 25 17.7246C24.5443 17.7246 24.1618 17.57 23.8525 17.2607C23.5433 16.9515 23.3887 16.569 23.3887 16.1133C23.3887 15.6901 23.5433 15.3158 23.8525 14.9902C24.1618 14.6647 24.5443 14.502 25 14.502ZM50 20.9473V14.502H45.166V0H12.5488L4.83398 8.54492V14.502H0V20.9473H4.83398V23.6816L1.75781 22.5586H0V40.332H7.03125L7.4707 38.9648L10.8887 41.0156L13.1348 41.6016C13.0697 41.7643 13.0127 41.9352 12.9639 42.1143C12.915 42.2933 12.8906 42.4642 12.8906 42.627C12.8906 43.3105 13.1266 43.8965 13.5986 44.3848C14.0706 44.873 14.6484 45.1335 15.332 45.166C15.3646 45.8171 15.625 46.3786 16.1133 46.8506C16.6016 47.3226 17.1712 47.5586 17.8223 47.5586C17.985 47.5586 18.1315 47.5505 18.2617 47.5342C18.3919 47.5179 18.5221 47.4772 18.6523 47.4121C18.8151 47.9329 19.1162 48.3561 19.5557 48.6816C19.9951 49.0072 20.4915 49.1699 21.0449 49.1699C21.3379 49.1699 21.6064 49.1292 21.8506 49.0479C22.0947 48.9665 22.3307 48.8444 22.5586 48.6816L23.1445 49.2676C23.3724 49.528 23.6328 49.7152 23.9258 49.8291C24.2188 49.943 24.528 50 24.8535 50H25C25.5208 50 25.9847 49.8535 26.3916 49.5605C26.7985 49.2676 27.0833 48.877 27.2461 48.3887C27.474 48.6491 27.7425 48.8444 28.0518 48.9746C28.361 49.1048 28.6947 49.1699 29.0527 49.1699C29.6061 49.1699 30.0944 48.999 30.5176 48.6572C30.9408 48.3154 31.2174 47.9004 31.3477 47.4121C31.5104 47.4447 31.665 47.4772 31.8115 47.5098C31.958 47.5423 32.1126 47.5586 32.2754 47.5586C32.8288 47.5586 33.3171 47.3877 33.7402 47.0459C34.1634 46.7041 34.4401 46.2891 34.5703 45.8008C34.7331 45.8333 34.8877 45.8659 35.0342 45.8984C35.1807 45.931 35.3353 45.9473 35.498 45.9473C36.1491 45.9473 36.7106 45.7113 37.1826 45.2393C37.6546 44.7673 37.8906 44.2057 37.8906 43.5547V43.2617C37.8906 43.0013 37.8499 42.749 37.7686 42.5049C37.6872 42.2607 37.5651 42.041 37.4023 41.8457L37.1582 41.4551L40.1367 39.0625L40.5273 40.332H50V22.5586H48.3887L45.166 23.4863V20.9473H50ZM12.8906 2.00195V8.05664H7.4707L12.8906 2.00195ZM6.44531 9.66797H14.502V1.61133H43.5547V14.502H38.7207V11.377L29.1992 17.7246L38.7207 24.0723V20.9473H43.5547V23.9746L36.084 26.0742L36.7676 28.3203L26.709 28.9551C26.3509 28.9876 25.9928 29.0527 25.6348 29.1504C25.2767 29.248 24.9186 29.3783 24.5605 29.541L22.8516 30.4199C22.4609 30.2246 22.0622 30.0781 21.6553 29.9805C21.2484 29.8828 20.8333 29.834 20.4102 29.834H14.6973L10.9375 27.9297L11.4746 26.123L6.44531 24.2676V20.9473H11.2793V24.0723L20.8008 17.7246L11.2793 11.377V14.502H6.44531V9.66797ZM1.61133 19.3359V16.1133H12.8906V14.4043L17.9199 17.7246L12.8906 21.0938V19.3359H1.61133ZM5.85938 38.7207H1.61133V24.2676L9.47266 27.0996L5.85938 38.7207ZM11.6211 39.5508L7.95898 37.4023L10.4492 29.4922L14.3066 31.4453H20.4102C20.7682 31.4453 21.1263 31.5023 21.4844 31.6162C21.8424 31.7301 22.1842 31.8848 22.5098 32.0801L26.9043 34.8145C27.0671 34.9121 27.1973 35.0423 27.2949 35.2051C27.3926 35.3678 27.4414 35.5469 27.4414 35.7422V35.9863C27.4414 36.3118 27.3275 36.5804 27.0996 36.792C26.8717 37.0036 26.6113 37.1094 26.3184 37.1094C26.2207 37.1094 26.123 37.0931 26.0254 37.0605C25.9277 37.028 25.8464 36.9954 25.7812 36.9629L22.7539 35.1074C22.1354 34.7493 21.4681 34.6191 20.752 34.7168C20.0358 34.8145 19.4173 35.1074 18.8965 35.5957L14.2578 40.2344L11.6211 39.5508ZM25.8301 47.5586C25.8301 47.7865 25.7487 47.9818 25.5859 48.1445C25.4232 48.3073 25.2279 48.3887 25 48.3887H24.8535C24.7559 48.3887 24.6582 48.3643 24.5605 48.3154C24.4629 48.2666 24.3652 48.2096 24.2676 48.1445L23.6328 47.4609C23.5352 47.3958 23.4701 47.3145 23.4375 47.2168C23.4049 47.1191 23.3887 47.0215 23.3887 46.9238V46.7773C23.3887 46.5495 23.4701 46.3542 23.6328 46.1914C23.7956 46.0286 23.9746 45.9473 24.1699 45.9473H24.3164C24.4466 45.9473 24.5605 45.9717 24.6582 46.0205C24.7559 46.0693 24.8372 46.1263 24.9023 46.1914L25.5859 46.875C25.651 46.9401 25.708 47.0215 25.7568 47.1191C25.8057 47.2168 25.8301 47.3307 25.8301 47.4609V47.5586ZM29.834 46.7773C29.834 47.0052 29.7526 47.1924 29.5898 47.3389C29.4271 47.4854 29.248 47.5586 29.0527 47.5586C28.9225 47.5586 28.8005 47.5342 28.6865 47.4854C28.5726 47.4365 28.4668 47.3633 28.3691 47.2656L26.7578 45.1172C26.7253 45.0521 26.6927 44.9788 26.6602 44.8975C26.6276 44.8161 26.6113 44.7266 26.6113 44.6289V44.3359C26.6113 44.1406 26.6927 43.9616 26.8555 43.7988C27.0182 43.6361 27.2135 43.5547 27.4414 43.5547C27.5391 43.5547 27.6449 43.5791 27.7588 43.6279C27.8727 43.6768 27.9785 43.75 28.0762 43.8477L29.6875 46.0449C29.7201 46.11 29.7526 46.1833 29.7852 46.2646C29.8177 46.346 29.834 46.4193 29.834 46.4844V46.7773ZM33.0566 45.166C33.0566 45.3939 32.9753 45.5811 32.8125 45.7275C32.6497 45.874 32.4707 45.9473 32.2754 45.9473C32.1452 45.9473 32.0231 45.9229 31.9092 45.874C31.7952 45.8252 31.6895 45.752 31.5918 45.6543L29.9805 43.5059C29.9479 43.4408 29.9154 43.3675 29.8828 43.2861C29.8503 43.2048 29.834 43.1152 29.834 43.0176V42.7246C29.834 42.5293 29.9154 42.3503 30.0781 42.1875C30.2409 42.0247 30.4362 41.9434 30.6641 41.9434C30.7617 41.9434 30.8675 41.9678 30.9814 42.0166C31.0954 42.0654 31.2012 42.1387 31.2988 42.2363L32.9102 44.3848C32.9427 44.4824 32.9753 44.5719 33.0078 44.6533C33.0404 44.7347 33.0566 44.8079 33.0566 44.873V45.166ZM36.2793 43.5547C36.2793 43.7826 36.2061 43.9697 36.0596 44.1162C35.9131 44.2627 35.7259 44.3359 35.498 44.3359C35.3678 44.3359 35.2458 44.3115 35.1318 44.2627C35.0179 44.2139 34.9284 44.1406 34.8633 44.043L33.2031 41.8945C33.1706 41.8294 33.138 41.748 33.1055 41.6504C33.0729 41.5527 33.0566 41.4714 33.0566 41.4062V41.1133C33.0566 40.918 33.138 40.7389 33.3008 40.5762C33.4635 40.4134 33.6589 40.332 33.8867 40.332C34.0169 40.332 34.139 40.3564 34.2529 40.4053C34.3669 40.4541 34.4564 40.5273 34.5215 40.625L36.1328 42.7734C36.1979 42.8711 36.2386 42.9606 36.2549 43.042C36.2712 43.1234 36.2793 43.1966 36.2793 43.2617V43.5547ZM36.1816 40.1855L35.791 39.6973C35.5632 39.3717 35.2783 39.1276 34.9365 38.9648C34.5947 38.8021 34.2448 38.7207 33.8867 38.7207C33.3008 38.7207 32.7962 38.8916 32.373 39.2334C31.9499 39.5752 31.6732 40.0065 31.543 40.5273C31.4128 40.4622 31.2663 40.4134 31.1035 40.3809C30.9408 40.3483 30.7943 40.332 30.6641 40.332C30.0781 40.332 29.5736 40.5029 29.1504 40.8447C28.7272 41.1865 28.4505 41.6178 28.3203 42.1387C28.1901 42.0736 28.0436 42.0247 27.8809 41.9922C27.7181 41.9596 27.5716 41.9434 27.4414 41.9434C26.7578 41.9434 26.18 42.1794 25.708 42.6514C25.236 43.1234 25 43.6849 25 44.3359V44.4824C24.9023 44.4499 24.7965 44.4173 24.6826 44.3848C24.5687 44.3522 24.4466 44.3359 24.3164 44.3359H24.1699C23.5189 44.3359 22.9574 44.5719 22.4854 45.0439C22.0133 45.516 21.7773 46.0938 21.7773 46.7773V46.9238C21.7773 46.9564 21.7773 46.9971 21.7773 47.0459C21.7773 47.0947 21.7936 47.1517 21.8262 47.2168L21.7285 47.3145C21.6309 47.4121 21.5251 47.4772 21.4111 47.5098C21.2972 47.5423 21.1751 47.5586 21.0449 47.5586C20.8171 47.5586 20.6136 47.4772 20.4346 47.3145C20.2555 47.1517 20.166 46.9401 20.166 46.6797C20.166 46.5495 20.1904 46.4274 20.2393 46.3135C20.2881 46.1995 20.3451 46.11 20.4102 46.0449L23.9746 42.5293L22.8027 41.3574L18.457 45.7031C18.3919 45.8008 18.3024 45.8659 18.1885 45.8984C18.0745 45.931 17.9525 45.9473 17.8223 45.9473C17.5944 45.9473 17.391 45.8659 17.2119 45.7031C17.0329 45.5404 16.9434 45.3288 16.9434 45.0684C16.9434 44.9382 16.9678 44.8161 17.0166 44.7021C17.0654 44.5882 17.1224 44.4987 17.1875 44.4336L21.5332 40.0879L20.4102 38.9648L16.0645 43.2617C15.9668 43.3594 15.861 43.4326 15.7471 43.4814C15.6331 43.5303 15.5273 43.5547 15.4297 43.5547C15.1693 43.5547 14.9495 43.4652 14.7705 43.2861C14.5915 43.1071 14.502 42.8874 14.502 42.627C14.502 42.5293 14.5264 42.4235 14.5752 42.3096C14.624 42.1956 14.6973 42.0898 14.7949 41.9922L20.0684 36.7188C20.2962 36.4909 20.5892 36.3525 20.9473 36.3037C21.3053 36.2549 21.6309 36.3281 21.9238 36.5234L24.9512 38.3301C25.1465 38.4603 25.3662 38.5579 25.6104 38.623C25.8545 38.6882 26.0905 38.7207 26.3184 38.7207C27.0671 38.7207 27.71 38.4521 28.2471 37.915C28.7842 37.3779 29.0527 36.735 29.0527 35.9863V35.7422C29.0527 35.2539 28.9388 34.8063 28.7109 34.3994C28.4831 33.9925 28.1738 33.6751 27.7832 33.4473L24.5117 31.3965L25.293 31.0059C25.5208 30.8757 25.765 30.778 26.0254 30.7129C26.2858 30.6478 26.5462 30.599 26.8066 30.5664L37.2559 29.8828L39.6484 37.4023L36.1816 40.1855ZM48.3887 24.2188V38.7207H41.6992L38.1348 27.1484L48.3887 24.2188ZM37.1094 19.3359V21.0938L32.0801 17.7246L37.1094 14.4043V16.1133H48.3887V19.3359H37.1094ZM16.1133 3.22266H41.9434V4.83398H16.1133V3.22266ZM16.1133 6.44531H41.9434V8.05664H16.1133V6.44531Z" fill="#CDB06C"/>
</svg>
