<svg width="17" height="9" viewBox="0 0 17 9" fill="none" xmlns="http://www.w3.org/2000/svg">
<path d="M0.219909 7.7191L7.7191 0.219911C7.78874 0.150186 7.87145 0.0948717 7.96249 0.0571332C8.05353 0.0193937 8.15111 -2.95607e-05 8.24966 -2.95607e-05C8.34822 -2.95607e-05 8.4458 0.0193937 8.53684 0.0571332C8.62788 0.0948717 8.71059 0.150186 8.78023 0.219911L16.2794 7.7191C16.4201 7.85981 16.4992 8.05066 16.4992 8.24966C16.4992 8.44867 16.4201 8.63952 16.2794 8.78023C16.1387 8.92095 15.9479 9 15.7489 9C15.5498 9 15.359 8.92095 15.2183 8.78023L8.24966 1.81068L1.28105 8.78023C1.21137 8.84991 1.12865 8.90518 1.03762 8.94288C0.946584 8.98059 0.849013 9 0.750477 9C0.651942 9 0.554371 8.98059 0.463336 8.94288C0.372301 8.90518 0.289584 8.84991 0.219909 8.78023C0.150235 8.71056 0.0949661 8.62784 0.0572581 8.53681C0.0195501 8.44577 0.000141128 8.3482 0.000141128 8.24966C0.000141128 8.15113 0.0195501 8.05356 0.0572581 7.96252C0.0949661 7.87149 0.150235 7.78877 0.219909 7.7191Z" fill="#2F2F2F"/>
</svg>
