<svg width="42" height="30" viewBox="0 0 42 30" fill="none" xmlns="http://www.w3.org/2000/svg">
<path d="M21.5627 30C21.0744 30 20.591 29.9561 20.1125 29.8682C19.634 29.7803 19.1604 29.6582 18.6916 29.502C17.6565 29.1113 16.6409 28.6719 15.6448 28.1836C14.6487 27.6953 13.6868 27.1533 12.759 26.5576C11.8313 25.9619 10.928 25.3223 10.0491 24.6387C9.18968 23.9355 8.36937 23.1934 7.58812 22.4121C6.80687 21.6309 6.07445 20.8105 5.39085 19.9512C4.68773 19.0723 4.03832 18.1689 3.44261 17.2412C2.84691 16.3135 2.30492 15.3516 1.81664 14.3555C1.32835 13.3594 0.898667 12.3438 0.527574 11.3086C0.273667 10.6445 0.112534 9.9707 0.0441751 9.28711C-0.0241843 8.60352 -0.00953585 7.91992 0.0881204 7.23633C0.185777 6.5918 0.356675 5.96191 0.600816 5.34668C0.844956 4.73145 1.15257 4.15039 1.52367 3.60352C1.91429 3.05664 2.35863 2.56348 2.85668 2.12402C3.35472 1.68457 3.88695 1.30859 4.45335 0.996094C5.07835 0.664062 5.72289 0.415039 6.38695 0.249023C7.05101 0.0830078 7.74437 0 8.46703 0C8.68187 0 8.87718 0.0683594 9.05296 0.205078C9.22874 0.341797 9.33617 0.517578 9.37523 0.732422L10.8401 7.61719C10.8791 7.77344 10.8743 7.9248 10.8254 8.07129C10.7766 8.21777 10.7034 8.34961 10.6057 8.4668L8.08617 10.9863C8.6721 12.1582 9.3557 13.2812 10.1369 14.3555C10.8987 15.4102 11.7434 16.4014 12.6711 17.3291C13.5989 18.2568 14.5901 19.1016 15.6448 19.8633C16.719 20.6445 17.842 21.3281 19.0139 21.9141L21.5334 19.3945C21.6506 19.2969 21.7825 19.2236 21.9289 19.1748C22.0754 19.126 22.2268 19.1211 22.383 19.1602L29.2678 20.625C29.4827 20.6641 29.6584 20.7715 29.7952 20.9473C29.9319 21.123 30.0002 21.3184 30.0002 21.5332C30.0002 22.2559 29.9172 22.9492 29.7512 23.6133C29.5852 24.2773 29.3362 24.9219 29.0041 25.5469C28.6916 26.1133 28.3157 26.6455 27.8762 27.1436C27.4368 27.6416 26.9436 28.0859 26.3967 28.4766C25.8498 28.8477 25.2688 29.1553 24.6535 29.3994C24.0383 29.6436 23.4084 29.8145 22.7639 29.9121C22.5686 29.9316 22.3684 29.9512 22.1633 29.9707C21.9582 29.9902 21.758 30 21.5627 30ZM7.70531 1.9043C6.76781 2.02148 5.89867 2.31445 5.09789 2.7832C4.2971 3.25195 3.62328 3.88672 3.0764 4.6875C2.4514 5.56641 2.07054 6.52832 1.93382 7.57324C1.7971 8.61816 1.91429 9.64844 2.28539 10.6641C3.00804 12.6562 3.92601 14.5312 5.03929 16.2891C6.15257 18.0469 7.43675 19.6533 8.89183 21.1084C10.3469 22.5635 11.9534 23.8477 13.7112 24.9609C15.469 26.0742 17.344 26.9922 19.3362 27.7148C20.3518 28.0859 21.3821 28.2031 22.427 28.0664C23.4719 27.9297 24.4338 27.5488 25.3127 26.9238C26.1135 26.377 26.7483 25.7031 27.217 24.9023C27.6858 24.1016 27.9787 23.2324 28.0959 22.2949L22.5002 21.0938L19.8635 23.7012C19.7268 23.8574 19.5608 23.9502 19.3655 23.9795C19.1702 24.0088 18.9846 23.9844 18.8088 23.9062C17.4221 23.2422 16.1037 22.4707 14.8537 21.5918C13.5842 20.7129 12.4123 19.7363 11.3381 18.6621C10.2639 17.5879 9.28734 16.416 8.40843 15.1465C7.52953 13.8965 6.75804 12.5781 6.09398 11.1914C6.01585 11.0156 5.99144 10.8301 6.02074 10.6348C6.05003 10.4395 6.14281 10.2734 6.29906 10.1367L8.90648 7.5L7.70531 1.9043ZM29.0627 15.9375C28.8088 15.9375 28.5891 15.8447 28.4035 15.6592C28.218 15.4736 28.1252 15.2539 28.1252 15C28.1252 13.1836 27.7834 11.4844 27.0998 9.90234C26.3967 8.30078 25.4543 6.90918 24.2727 5.72754C23.091 4.5459 21.6994 3.60352 20.0979 2.90039C18.5159 2.2168 16.8166 1.875 15.0002 1.875C14.7463 1.875 14.5266 1.78223 14.341 1.59668C14.1555 1.41113 14.0627 1.19141 14.0627 0.9375C14.0627 0.683594 14.1555 0.463867 14.341 0.27832C14.5266 0.0927734 14.7463 0 15.0002 0C15.9963 0 16.9827 0.0976562 17.9592 0.292969C18.9162 0.488281 19.844 0.771484 20.7424 1.14258C21.6409 1.51367 22.5002 1.97266 23.3205 2.51953C24.1409 3.06641 24.9026 3.69141 25.6057 4.39453C26.3088 5.09766 26.9338 5.85938 27.4807 6.67969C28.0276 7.5 28.4866 8.35938 28.8577 9.25781C29.2287 10.1562 29.5119 11.084 29.7073 12.041C29.9026 13.0176 30.0002 14.0039 30.0002 15C30.0002 15.2539 29.9075 15.4736 29.7219 15.6592C29.5364 15.8447 29.3166 15.9375 29.0627 15.9375ZM25.3127 15.9375C25.0588 15.9375 24.8391 15.8447 24.6535 15.6592C24.468 15.4736 24.3752 15.2539 24.3752 15C24.3752 13.7109 24.1311 12.5 23.6428 11.3672C23.1545 10.2148 22.4856 9.21387 21.636 8.36426C20.7864 7.51465 19.7854 6.8457 18.633 6.35742C17.5002 5.86914 16.2893 5.625 15.0002 5.625C14.7463 5.625 14.5266 5.53223 14.341 5.34668C14.1555 5.16113 14.0627 4.94141 14.0627 4.6875C14.0627 4.43359 14.1555 4.21387 14.341 4.02832C14.5266 3.84277 14.7463 3.75 15.0002 3.75C16.5432 3.75 17.9983 4.04297 19.3655 4.62891C20.7327 5.21484 21.9289 6.02051 22.9543 7.0459C23.9797 8.07129 24.7854 9.26758 25.3713 10.6348C25.9573 12.002 26.2502 13.457 26.2502 15C26.2502 15.2539 26.1575 15.4736 25.9719 15.6592C25.7864 15.8447 25.5666 15.9375 25.3127 15.9375ZM21.5627 15.9375C21.3088 15.9375 21.0891 15.8447 20.9035 15.6592C20.718 15.4736 20.6252 15.2539 20.6252 15C20.6252 13.457 20.0735 12.1338 18.97 11.0303C17.8664 9.92676 16.5432 9.375 15.0002 9.375C14.7463 9.375 14.5266 9.28223 14.341 9.09668C14.1555 8.91113 14.0627 8.69141 14.0627 8.4375C14.0627 8.18359 14.1555 7.96387 14.341 7.77832C14.5266 7.59277 14.7463 7.5 15.0002 7.5C16.0354 7.5 17.0119 7.69531 17.9299 8.08594C18.8284 8.47656 19.6194 9.01367 20.303 9.69727C20.9866 10.3809 21.5237 11.1719 21.9143 12.0703C22.3049 12.9883 22.5002 13.9648 22.5002 15C22.5002 15.2539 22.4075 15.4736 22.2219 15.6592C22.0364 15.8447 21.8166 15.9375 21.5627 15.9375Z" fill="#303B57"/>
</svg>
