<svg width="50" height="50" viewBox="0 0 50 50" fill="none" xmlns="http://www.w3.org/2000/svg">
<path d="M49.1699 45.0195H46.6797V29.1504C46.6797 28.9225 46.5983 28.7272 46.4355 28.5645C46.2728 28.4017 46.0775 28.3203 45.8496 28.3203C45.6868 28.3203 45.5485 28.3529 45.4346 28.418C45.3206 28.4831 45.2311 28.5807 45.166 28.7109L33.4961 45.3613C33.3659 45.5566 33.3171 45.7682 33.3496 45.9961C33.3822 46.224 33.4961 46.403 33.6914 46.5332C33.7565 46.5658 33.8298 46.5983 33.9111 46.6309C33.9925 46.6634 34.082 46.6797 34.1797 46.6797H45.0195V49.1699C45.0195 49.3978 45.1009 49.5931 45.2637 49.7559C45.4264 49.9186 45.6217 50 45.8496 50C46.0775 50 46.2728 49.9186 46.4355 49.7559C46.5983 49.5931 46.6797 49.3978 46.6797 49.1699V46.6797H49.1699C49.3978 46.6797 49.5931 46.5983 49.7559 46.4355C49.9186 46.2728 50 46.0775 50 45.8496C50 45.6217 49.9186 45.4264 49.7559 45.2637C49.5931 45.1009 49.3978 45.0195 49.1699 45.0195ZM45.0195 45.0195H35.7422L45.0195 31.7871V45.0195ZM34.1797 48.3398H24.3164L33.4961 37.5488C33.4961 37.5163 33.4961 37.4919 33.4961 37.4756C33.4961 37.4593 33.5124 37.4512 33.5449 37.4512C34.3913 36.1816 34.6924 34.7819 34.4482 33.252C34.2041 31.722 33.4635 30.5013 32.2266 29.5898C30.7292 28.5156 29.069 28.125 27.2461 28.418C25.4232 28.7109 23.9746 29.6061 22.9004 31.1035C22.5098 31.6895 22.2087 32.3079 21.9971 32.959C21.7855 33.61 21.6797 34.2936 21.6797 35.0098C21.6797 35.2376 21.7611 35.4329 21.9238 35.5957C22.0866 35.7585 22.2819 35.8398 22.5098 35.8398C22.7376 35.8398 22.9329 35.7585 23.0957 35.5957C23.2585 35.4329 23.3398 35.2376 23.3398 35.0098C23.3398 33.61 23.8281 32.4219 24.8047 31.4453C25.7812 30.4688 26.9531 29.9805 28.3203 29.9805C28.8411 29.9805 29.3538 30.0618 29.8584 30.2246C30.363 30.3874 30.8268 30.6315 31.25 30.957C32.0964 31.6081 32.6091 32.4707 32.7881 33.5449C32.9671 34.6191 32.7637 35.5957 32.1777 36.4746L21.875 48.6328C21.7122 48.7956 21.639 48.9909 21.6553 49.2188C21.6715 49.4466 21.7773 49.6419 21.9727 49.8047C22.0378 49.8698 22.1191 49.9186 22.2168 49.9512C22.3145 49.9837 22.4121 50 22.5098 50H34.1797C34.4076 50 34.6029 49.9186 34.7656 49.7559C34.9284 49.5931 35.0098 49.3978 35.0098 49.1699C35.0098 48.9421 34.9284 48.7467 34.7656 48.584C34.6029 48.4212 34.4076 48.3398 34.1797 48.3398ZM22.5098 44.1895C22.5098 43.9616 22.4365 43.7581 22.29 43.5791C22.1436 43.4001 21.9564 43.3105 21.7285 43.3105C18.9941 43.2129 16.4388 42.627 14.0625 41.5527C11.6862 40.4785 9.59473 39.0462 7.78809 37.2559C5.98145 35.4655 4.54102 33.3822 3.4668 31.0059C2.39258 28.597 1.80664 26.0417 1.70898 23.3398H4.98047C5.20833 23.3398 5.40365 23.2585 5.56641 23.0957C5.72917 22.9329 5.81055 22.7376 5.81055 22.5098C5.81055 22.2819 5.72917 22.0866 5.56641 21.9238C5.40365 21.7611 5.20833 21.6797 4.98047 21.6797H1.70898C1.80664 18.9453 2.39258 16.39 3.4668 14.0137C4.54102 11.6374 5.97331 9.55404 7.76367 7.76367C9.55404 5.97331 11.6374 4.54102 14.0137 3.4668C16.39 2.39258 18.9453 1.80664 21.6797 1.70898V4.15039C21.6797 4.37825 21.7611 4.57357 21.9238 4.73633C22.0866 4.89909 22.2819 4.98047 22.5098 4.98047C22.7376 4.98047 22.9329 4.89909 23.0957 4.73633C23.2585 4.57357 23.3398 4.37825 23.3398 4.15039V1.70898C26.0091 1.80664 28.5156 2.3763 30.8594 3.41797C33.2357 4.45964 35.319 5.85938 37.1094 7.61719C38.8997 9.375 40.332 11.4258 41.4062 13.7695C42.513 16.1133 43.1478 18.6198 43.3105 21.2891L40.0391 18.0176C39.8763 17.8548 39.681 17.7816 39.4531 17.7979C39.2253 17.8141 39.0299 17.9036 38.8672 18.0664C38.7044 18.2292 38.623 18.4163 38.623 18.6279C38.623 18.8395 38.7044 19.0267 38.8672 19.1895L43.5059 23.877C43.571 23.9095 43.6279 23.9502 43.6768 23.999C43.7256 24.0479 43.7826 24.0885 43.8477 24.1211C43.8477 24.1211 43.8558 24.1211 43.8721 24.1211C43.8883 24.1211 43.9128 24.1211 43.9453 24.1211C43.9779 24.1211 44.0104 24.1292 44.043 24.1455C44.0755 24.1618 44.1081 24.1699 44.1406 24.1699C44.1406 24.1699 44.1569 24.1699 44.1895 24.1699C44.222 24.1699 44.2464 24.1618 44.2627 24.1455C44.279 24.1292 44.3034 24.1211 44.3359 24.1211C44.3685 24.1211 44.3929 24.1211 44.4092 24.1211C44.4255 24.1211 44.4336 24.1211 44.4336 24.1211C44.4987 24.0885 44.5557 24.056 44.6045 24.0234C44.6533 23.9909 44.7103 23.9583 44.7754 23.9258L49.4629 19.1895C49.6257 19.0267 49.707 18.8314 49.707 18.6035C49.707 18.3757 49.6257 18.1803 49.4629 18.0176C49.3001 17.8548 49.1048 17.7734 48.877 17.7734C48.6491 17.7734 48.4538 17.8548 48.291 18.0176L44.9707 21.3379C44.8079 18.3757 44.1081 15.5924 42.8711 12.9883C41.6667 10.3841 40.0553 8.12175 38.0371 6.20117C36.0189 4.2806 33.6751 2.76693 31.0059 1.66016C28.3691 0.553387 25.5534 0 22.5586 0C22.5586 0 22.5505 0 22.5342 0C22.5179 0 22.5098 0 22.5098 0C22.4772 0 22.4609 0 22.4609 0C19.3685 0 16.4551 0.602215 13.7207 1.80664C10.9863 2.97852 8.61003 4.57357 6.5918 6.5918C4.57357 8.61003 2.97852 10.9863 1.80664 13.7207C0.602214 16.4551 0 19.3685 0 22.4609C0 22.4609 0 22.4772 0 22.5098C0 22.5098 0 22.5179 0 22.5342C0 22.5505 0 22.5586 0 22.5586C0 25.5859 0.569661 28.4342 1.70898 31.1035C2.81576 33.7728 4.3457 36.1165 6.29883 38.1348C8.25195 40.153 10.5469 41.7643 13.1836 42.9688C15.8203 44.2057 18.6361 44.873 21.6309 44.9707H21.6797C21.9076 44.9707 22.1029 44.8975 22.2656 44.751C22.4284 44.6045 22.5098 44.4173 22.5098 44.1895ZM33.6914 11.3281C33.5286 11.1654 33.3333 11.084 33.1055 11.084C32.8776 11.084 32.6823 11.1654 32.5195 11.3281L23.584 20.2637C23.2259 20.1009 22.8597 20.0195 22.4854 20.0195C22.111 20.0195 21.7611 20.1009 21.4355 20.2637L17.1875 16.0156C17.0247 15.8529 16.8294 15.7715 16.6016 15.7715C16.3737 15.7715 16.1784 15.8529 16.0156 16.0156C15.8529 16.1784 15.7715 16.3737 15.7715 16.6016C15.7715 16.8294 15.8529 17.0247 16.0156 17.1875L20.2637 21.4355C19.9707 22.054 19.9382 22.6888 20.166 23.3398C20.3939 23.9909 20.8171 24.4629 21.4355 24.7559C21.8913 24.9837 22.3877 25.057 22.9248 24.9756C23.4619 24.8942 23.9095 24.6582 24.2676 24.2676C24.6582 23.9095 24.8942 23.4619 24.9756 22.9248C25.057 22.3877 24.9837 21.8913 24.7559 21.4355L33.6914 12.5C33.8542 12.3372 33.9355 12.1419 33.9355 11.9141C33.9355 11.6862 33.8542 11.4909 33.6914 11.3281ZM23.0957 23.0957C22.9329 23.2585 22.7376 23.3398 22.5098 23.3398C22.2819 23.3398 22.0866 23.2585 21.9238 23.0957C21.7611 22.9329 21.6797 22.7376 21.6797 22.5098C21.6797 22.2819 21.7611 22.0866 21.9238 21.9238C22.0866 21.7611 22.2819 21.6797 22.5098 21.6797C22.7376 21.6797 22.9329 21.7611 23.0957 21.9238C23.2585 22.0866 23.3398 22.2819 23.3398 22.5098C23.3398 22.7376 23.2585 22.9329 23.0957 23.0957Z" fill="#CDB06C"/>
</svg>
